<svg id="design-to-wordpress" xmlns="http://www.w3.org/2000/svg" xmlns:xlink="http://www.w3.org/1999/xlink" x="0px" y="0px"
	 viewBox="0 0 512.003 512.003" xml:space="preserve">
	<circle class="primary" cx="256.001" cy="256" r="256"/>
	<path class="primary-shade" d="M503.617,321.116L329.069,146.586l-13.757-13.798l-13.801-13.801H182.929v109.609l51.459,51.461
		l3.351,3.351H164.66l-7.304-7.306l-14.61,14.612l8.161,8.161l-0.858,40.113l15.946,15.946l-52.48,38.088l117.768,117.773
		c8.136,0.781,16.374,1.208,24.714,1.208C374.883,512,474.815,430.961,503.617,321.116z"/>
	<polygon class="secondary" points="182.929,118.986 182.929,228.603 329.076,228.603 329.076,146.565 301.49,118.986 "/>
	<polygon class="secondary-shade" points="301.49,146.565 329.076,174.144 329.076,146.565 315.283,132.777 "/>
	<g class="white">
		<polygon points="329.076,146.565 301.49,146.565 301.49,118.986 	"/>
		<rect x="203.547" y="147.566" width="52.452" height="4.201"/>
		<rect x="203.547" y="163.653" width="104.901" height="4.201"/>
		<rect x="203.547" y="179.738" width="104.901" height="4.196"/>
		<rect x="203.547" y="195.84" width="104.901" height="4.193"/>
		<rect class="b" x="219.47" y="338.202" width="73.075" height="54.812"/>
		<rect class="a" x="113.512" y="338.202" width="73.07" height="54.812"/>
		<rect class="c" x="325.428" y="338.202" width="73.075" height="54.812"/>
	</g>
	<g class="black">
		<rect class="b" x="252.648" y="228.608" width="6.728" height="109.601"/>
		<rect class="a" x="146.689" y="279.757" width="6.728" height="58.445"/>
		<rect class="c" x="358.581" y="279.757" width="6.735" height="58.445"/>
		<rect class="a" x="146.382" y="280.038" width="109.6065" height="6.73"/>
		<rect class="c" x="255.9885" y="280.038" width="109.6065" height="6.73"/>
	</g>
	<g class="black">
		<rect class="b" x="248.68" y="276.096" width="14.623" height="14.615"/>
		<rect class="a" x="142.734" y="276.096" width="14.615" height="14.615"/>
		<rect class="c" x="354.638" y="276.096" width="14.623" height="14.615"/>
	</g>
</svg>
