<svg version="1.1" id="site-conversion" xmlns="http://www.w3.org/2000/svg" xmlns:xlink="http://www.w3.org/1999/xlink" x="0px" y="0px"
	 viewBox="0 0 512 512" style="enable-background:new 0 0 512 512;" xml:space="preserve">
<circle style="fill:#49637F;" cx="256" cy="256" r="256"/>
<path style="fill:#304C69;" d="M508.17,299.901L366.973,158.702H264.591v52.372l-17.165-17.165l-26.314-26.304l-8.896-8.904H109.834
	v194.56L268.255,511.69C389.143,505.987,488.015,416.435,508.17,299.901z"/>
<polygon style="fill:#8AD58A;" points="212.206,158.705 109.834,158.705 109.834,353.298 247.406,353.298 247.406,193.912 "/>
<polygon style="fill:#5CBA5C;" points="212.206,193.912 247.406,229.13 247.406,193.912 229.788,176.312 "/>
<g>
	<polygon style="fill:#FFFFFF;" points="247.406,193.912 212.206,193.912 212.206,158.705 	"/>
	<polygon style="fill:#FFFFFF;" points="366.95,158.705 264.576,158.705 264.576,353.298 402.166,353.298 402.166,193.912 	"/>
</g>
<polygon style="fill:#5CBA5C;" points="366.95,193.912 402.166,229.13 402.166,193.912 384.543,176.312 "/>
<polygon style="fill:#8AD58A;" points="402.166,193.912 366.95,193.912 366.95,158.705 "/>
<g>
	<polygon style="fill:#2C2C26;" points="235.361,272.87 297.626,272.87 297.626,251.884 235.361,251.884 235.361,241.385
		214.362,262.369 235.361,283.369 	"/>
	<polygon style="fill:#2C2C26;" points="276.628,313.211 214.362,313.211 214.362,292.216 276.628,292.216 276.628,281.72
		297.626,302.71 276.628,323.702 	"/>
</g>
</svg>
