<svg xmlns="http://www.w3.org/2000/svg" xmlns:xlink="http://www.w3.org/1999/xlink" xml:space="preserve" x="0px" y="0px" viewBox="0 0 512 512">
	<g class="currentLayer">
		<circle class="primary" cx="256" cy="256" r="256" id="svg_1"/>
		<path class="primary-shade" d="M351.444,135.749l-3.246-3.241c-0.044,0-0.044,0-0.044-0.044c-1.856-1.577-3.799-2.967-5.878-4.168  l-7.311-4.214c-8.376-4.81-18.652-6.474-28.739-3.743c-10.092,2.683-18.143,9.257-23.002,17.631l-1.326,2.33l-0.015-0.015  l-13.834-13.834l-0.136-0.138c-0.082-0.079-0.161-0.164-0.246-0.243l-0.133-0.133c-0.205-0.182-0.479-0.284-0.709-0.443  c-0.274-0.164-0.527-0.374-0.822-0.494c-0.625-0.256-1.285-0.407-1.987-0.407h-16.054c-2.964,0-5.322,2.404-5.322,5.373v0.742  c0,0.66,0.148,1.277,0.371,1.861c0.077,0.21,0.182,0.389,0.282,0.584c0.1,0.187,0.156,0.394,0.274,0.561l0.323,0.333  c0.21,0.271,0.435,0.507,0.694,0.719l0.366,0.387c0.049,0.044,0.092,0.044,0.092,0.044l8.66,8.655v7.493  c-3.105,0.049-6.167,0.269-9.208,0.55l-21.386-21.371c-0.028-0.038-0.072-0.074-0.108-0.108c-1.362-1.395-2.824-2.688-4.403-3.866  c-0.287-0.212-0.584-0.407-0.87-0.612c-0.87-0.607-1.761-1.18-2.691-1.725c-0.351-0.207-0.709-0.404-1.075-0.607  c-0.96-0.52-1.953-0.983-2.964-1.418c-0.33-0.143-0.645-0.302-0.983-0.435c-1.37-0.54-2.767-1.029-4.214-1.411  c-10.135-2.732-20.36-1.068-28.782,3.743l-7.273,4.214c-8.374,4.859-14.948,12.908-17.628,22.994  c-2.732,10.14-1.065,20.367,3.743,28.746l2.132,3.656l8.284,8.284l0.003,0.003c-18.45,21.01-29.668,48.548-29.668,78.715  c0,37.673,17.449,71.222,44.705,93.112l-19.018,23.744l5.412,5.458l117.312,117.307c115.325-13.02,207.419-102.623,224.205-216.763  L351.444,135.749z" id="svg_2"/>
		<g id="svg_3">
			<polygon class="gray" points="167.718,392.988 162.304,387.551 183.956,360.512 194.765,371.336  " id="svg_4"/>
			<polygon class="gray" points="344.271,392.988 349.704,387.551 328.051,360.512 317.228,371.336  " id="svg_5"/>
		</g>
		<path class="secondary" d="M354.015,183.695l-72.886-42.092l2.097-3.638c4.849-8.399,12.895-14.94,22.994-17.649  c10.099-2.708,20.352-1.065,28.751,3.786l7.283,4.196c8.399,4.854,14.938,12.908,17.656,22.999  c2.703,10.109,1.052,20.36-3.791,28.746L354.015,183.695z" id="svg_6"/>
		<path class="secondary-tint" d="M293.425,142.083c-0.778,0-1.556-0.253-2.204-0.788c-1.51-1.211-1.748-3.425-0.533-4.936  c4.339-5.366,10.179-9.16,16.891-10.952c8.323-2.237,17.321-1.044,24.758,3.249c1.684,0.973,2.26,3.126,1.293,4.803  c-0.97,1.687-3.121,2.25-4.797,1.285c-5.857-3.372-12.895-4.301-19.425-2.55c-5.276,1.408-9.864,4.375-13.24,8.576  C295.478,141.642,294.454,142.083,293.425,142.083z" id="svg_7"/>
		<rect x="311.8280029296875" y="162.13299560546875" transform="matrix(0.8664,0.4994,-0.4994,0.8664,125.0561,-135.458) " class="gray" width="7.6519999504089355" height="7.6519999504089355" id="svg_8"/>
		<path class="secondary" d="M230.879,141.601l-72.883,42.092l-2.112-3.651c-4.846-8.387-6.497-18.637-3.779-28.746  c2.703-10.092,9.244-18.148,17.638-22.999l7.288-4.196c8.407-4.851,18.647-6.5,28.759-3.791c10.092,2.714,18.14,9.257,22.994,17.654  L230.879,141.601z" id="svg_9"/>
		<path class="secondary-tint" d="M161.51,175.037c-1.405,0-2.739-0.858-3.277-2.24c-2.486-6.454-2.849-13.414-1.044-20.127  c2.258-8.417,7.649-15.444,15.191-19.804c1.672-0.975,3.827-0.389,4.797,1.285c0.968,1.674,0.392,3.825-1.28,4.803  c-5.921,3.412-10.156,8.934-11.932,15.542c-1.405,5.271-1.126,10.721,0.819,15.77c0.699,1.81-0.197,3.832-2.012,4.531  C162.36,174.958,161.933,175.037,161.51,175.037z" id="svg_10"/>
		<g id="svg_11">
			<rect x="192.5030059814453" y="162.1529998779297" transform="matrix(0.8662,-0.4998,0.4998,0.8662,-56.6747,120.3344) " class="gray" width="7.646999835968018" height="7.6519999504089355" id="svg_12"/>
			<rect x="253.6959991455078" y="136.03799438476562" class="gray" width="4.599999904632568" height="15.300999641418457" id="svg_13"/>
		</g>
		<g id="svg_14" class="">
			<path class="secondary" d="M242.614,130.691c0,2.949,2.409,5.353,5.358,5.353h16.069c2.941,0,5.35-2.401,5.35-5.353v-0.755   c0-2.959-2.406-5.366-5.35-5.366h-16.069c-2.949,0-5.358,2.404-5.358,5.366V130.691z" id="svg_15"/>
			<circle class="secondary" cx="256" cy="270.6940002441406" r="119.37300109863281" id="svg_16"/>
		</g>
		<path class="white" d="M359.368,270.684c0,57.078-46.277,103.368-103.368,103.368c-57.083,0-103.365-46.29-103.365-103.368  c0-57.085,46.282-103.35,103.365-103.35C313.091,167.334,359.368,213.601,359.368,270.684z" id="svg_17" class=""/>
		<path class="tertiary" d="M302.31578838825226,191.54452527427674 c-38.641,0 -72.31,21.215 -90.04,52.636 l89.935,50.56 l86.595,-56.417 C370.34778838825224,210.15352527427675 338.5217883882523,191.54452527427674 302.31578838825226,191.54452527427674 z" id="svg_18" transform="rotate(59.80338668823242 300.54077148437494,243.1425323486328) " fill="#41e841" fill-opacity="1"/>
		<rect x="253.10699462890625" y="177.61300659179688" class="primary-shade" width="5.785999774932861" height="19.836999893188477" id="svg_20"/>
		<rect x="162.91799926757812" y="267.802001953125" class="primary-shade" width="19.850000381469727" height="5.7729997634887695" id="svg_21"/>
		<rect x="253.10699462890625" y="343.9100036621094" class="primary-shade" width="5.785999774932861" height="19.847999572753906" id="svg_22"/>
		<rect x="329.24200439453125" y="267.802001953125" class="primary-shade" width="19.84000015258789" height="5.7729997634887695" id="svg_23"/>
		<path class="primary-shade" d="M311.03342048168184,267.25794563674924 l-49.469,32.22 c-1.5390000000000001,1.024 -1.9660000000000002,3.075 -0.9680000000000006,4.593 c0.998,1.5390000000000001 3.054,1.974 4.58,0.9630000000000006 l49.477,-32.223 L311.03342048168184,267.25794563674924 z" id="svg_24" transform="rotate(-120.40935516357422 287.35565185546875,286.4188232421875) "/>
		<path class="primary-shade" d="M274.4571039581299,252.02252730083467 l-32.883,-18.542 l-3.244,5.773 l32.888,18.529 c1.6,0.8930000000000005 3.6020000000000003,0.3300000000000003 4.495,-1.249 C276.6211039581299,254.92252730083464 276.05210395812986,252.91552730083464 274.4571039581299,252.02252730083467 z" id="svg_25" transform="rotate(-120.60196685791016 257.23797607421875,245.84375000000003) "/>
		<path class="primary-shade" d="M262.94,270.684c0,3.835-3.105,6.948-6.94,6.948c-3.835,0-6.938-3.113-6.938-6.948   c0-3.819,3.103-6.945,6.938-6.945C259.835,263.739,262.94,266.865,262.94,270.684z" id="svg_28" class="" fill="#484848" fill-opacity="1"/>
		<g id="svg_29">
			<polygon class="primary-shade" points="271.78,186.906 269.842,186.56 271.204,178.826 273.129,179.18  " id="svg_30"/>
			<rect x="285.52099609375" y="182.9720001220703" transform="matrix(-0.9399,-0.3415,0.3415,-0.9399,491.9648,460.377) " class="primary-shade" width="1.965999960899353" height="7.828999996185303" id="svg_31"/>
			<polygon class="primary-shade" points="299.479,197.34 297.795,196.352 301.701,189.571 303.386,190.559  " id="svg_32"/>
			<polygon class="primary-shade" points="311.552,206.003 310.065,204.736 315.085,198.756 316.582,199.992  " id="svg_33"/>
			<rect x="323.35400390625" y="209.43800354003906" transform="matrix(-0.6409,-0.7676,0.7676,-0.6409,368.4345,599.0515) " class="primary-shade" width="1.9609999656677246" height="7.822999954223633" id="svg_34"/>
			<rect x="332.2590026855469" y="222.17799377441406" transform="matrix(-0.5027,-0.8645,0.8645,-0.5027,305.3016,627.8353) " class="primary-shade" width="1.968999981880188" height="7.843999862670898" id="svg_35"/>
			<rect x="338.8160095214844" y="236.29400634765625" transform="matrix(-0.3432,-0.9393,0.9393,-0.3432,230.8025,641.7952) " class="primary-shade" width="1.965999960899353" height="7.810999870300293" id="svg_36"/>
			<polygon class="primary-shade" points="340.137,256.837 339.799,254.92 347.512,253.548 347.848,255.478  " id="svg_37"/>
			<polygon class="primary-shade" points="339.799,286.467 340.145,284.516 347.848,285.891 347.512,287.823  " id="svg_38"/>
			<rect x="338.8330078125" y="297.2909851074219" transform="matrix(0.3456,-0.9384,0.9384,0.3456,-60.2685,515.9791) " class="primary-shade" width="1.9529999494552612" height="7.817999839782715" id="svg_39"/>
			<rect x="332.2650146484375" y="311.38800048828125" transform="matrix(0.5043,-0.8635,0.8635,0.5043,-107.0837,444.0565) " class="primary-shade" width="1.9630000591278076" height="7.828000068664551" id="svg_40"/>
			<polygon class="primary-shade" points="320.684,326.226 321.94,324.736 327.946,329.764 326.674,331.274  " id="svg_41"/>
			<rect x="312.36700439453125" y="335.0559997558594" transform="matrix(0.7672,-0.6414,0.6414,0.7672,-144.4713,279.8885) " class="primary-shade" width="1.9479999542236328" height="7.826000213623047" id="svg_42"/>
			<polygon class="primary-shade" points="297.795,345.014 299.479,344.028 303.393,350.812 301.701,351.811  " id="svg_43"/>
			<polygon class="primary-shade" points="284.247,351.135 286.08,350.454 288.763,357.821 286.915,358.51  " id="svg_44"/>
			<polygon class="primary-shade" points="269.85,354.803 271.78,354.493 273.129,362.196 271.204,362.527  " id="svg_45"/>
			<polygon class="primary-shade" points="240.241,354.493 242.158,354.836 240.809,362.547 238.871,362.189  " id="svg_46"/>
			<polygon class="primary-shade" points="225.928,350.467 227.768,351.135 225.083,358.51 223.237,357.821  " id="svg_47"/>
			<polygon class="primary-shade" points="212.526,344.028 214.221,345.016 210.307,351.811 208.607,350.812  " id="svg_48"/>
			<rect x="197.71499633789062" y="335.09100341796875" transform="matrix(0.7639,0.6453,-0.6453,0.7639,265.6713,-48.184) " class="primary-shade"  width="1.9479999542236328" height="7.826000213623047" id="svg_49"/>
			<polygon class="primary-shade" points="190.067,324.744 191.316,326.244 185.326,331.274 184.061,329.759  " id="svg_50"/>
			<polygon class="primary-shade" points="181.681,312.466 182.643,314.166 175.875,318.093 174.897,316.385  " id="svg_51"/>
			<polygon class="primary-shade" points="175.549,298.926 176.21,300.764 168.863,303.442 168.197,301.601  " id="svg_52"/>
			<rect x="167.1909942626953" y="282.2640075683594" transform="matrix(0.177,0.9842,-0.9842,0.177,420.0643,70.0057) " class="primary-shade"  width="1.9630000591278076" height="7.826000213623047" id="svg_53"/>
			<polygon class="primary-shade" points="172.209,254.92 171.86,256.837 164.152,255.478 164.511,253.548  " id="svg_54"/>
			<polygon class="primary-shade" points="176.21,240.604 175.549,242.445 168.189,239.772 168.876,237.926  " id="svg_55"/>
			<polygon class="primary-shade" points="182.643,227.208 181.668,228.91 174.881,224.983 175.875,223.273  " id="svg_56"/>
			<polygon class="primary-shade" points="191.316,215.127 190.06,216.612 184.054,211.599 185.334,210.099  " id="svg_57"/>
			<polygon class="primary-shade" points="201.943,204.736 200.453,206.003 195.412,199.992 196.915,198.756  " id="svg_58"/>
			<polygon class="primary-shade" points="214.221,196.352 212.526,197.327 208.602,190.559 210.314,189.571  " id="svg_59"/>
			<polygon class="primary-shade" points="227.753,190.221 225.92,190.881 223.237,183.542 225.091,182.874  " id="svg_60"/>
			<polygon class="primary-shade" points="242.158,186.56 240.233,186.862 238.871,179.18 240.809,178.826  " id="svg_61"/>
		</g>
		<path class="tertiary-shade" style="" d="M408.10441571331023,247.29646697711945 c-1.7890000000000001,-2.5860000000000003 -3.709,-5.094 -5.76,-7.475 c-0.6910000000000017,-0.8190000000000006 -1.3820000000000001,-1.613 -2.074,-2.3810000000000002 c-1.3820000000000001,-1.562 -2.842,-3.098 -4.352,-4.557 c-1.485,-1.459 -3.021,-2.8930000000000002 -4.6080000000000005,-4.275 c-0.7680000000000012,-0.6910000000000017 -1.5870000000000002,-1.3820000000000001 -2.406,-2.022 c-0.794,-0.6660000000000015 -1.613,-1.331 -2.458,-1.971 c-0.5860000000000006,-0.461 -1.178,-0.922 -1.7890000000000001,-1.357 c-0.4860000000000003,-0.3580000000000003 -0.975,-0.7170000000000006 -1.459,-1.05 c-5.814,-4.147 -12.083,-7.706 -18.739,-10.573 c-0.8700000000000011,-0.3840000000000006 -1.715,-0.7420000000000011 -2.611,-1.101 c-2.534,-1.024 -5.12,-1.9460000000000002 -7.734,-2.739 c-0.7680000000000012,-0.256 -1.536,-0.4860000000000003 -2.301,-0.6910000000000017 c-6.605,-1.8940000000000001 -13.494,-3.149 -20.582,-3.661 c-0.6680000000000015,-0.05100000000000011 -1.334,-0.10200000000000002 -1.974,-0.15400000000000028 c-0.8700000000000011,-0.02600000000000006 -1.715,-0.07700000000000012 -2.5860000000000003,-0.10200000000000002 c-1.101,-0.02600000000000006 -2.202,-0.05100000000000011 -3.302,-0.05100000000000011 c-1.408,0 -2.79,0.02600000000000006 -4.173,0.07700000000000012 c-0.998,0.05100000000000011 -1.9969999999999999,0.10200000000000002 -2.995,0.17900000000000021 c-1.126,0.07700000000000012 -2.278,0.15400000000000028 -3.4050000000000002,0.2820000000000003 c-0.4100000000000003,0.05100000000000011 -0.8450000000000006,0.07700000000000012 -1.254,0.128 c-0.7170000000000006,0.07700000000000012 -1.4340000000000002,0.17900000000000021 -2.15,0.2820000000000003 c-2.688,0.3580000000000003 -5.35,0.8190000000000006 -7.962,1.3820000000000001 c-0.7170000000000006,0.15400000000000028 -1.4340000000000002,0.3330000000000008 -2.15,0.4860000000000003 c-1.28,0.30700000000000055 -2.534,0.6400000000000012 -3.789,0.998 c-0.9470000000000006,0.256 -1.8940000000000001,0.538 -2.842,0.8450000000000006 c-0.973,0.2820000000000003 -1.9460000000000002,0.6140000000000011 -2.918,0.9470000000000006 c-0.5630000000000006,0.17900000000000021 -1.126,0.3840000000000006 -1.6900000000000008,0.5890000000000006 c-0.8700000000000011,0.30700000000000055 -1.715,0.6400000000000012 -2.56,0.973 c-0.973,0.3840000000000006 -1.9460000000000002,0.7680000000000012 -2.918,1.203 c-0.5890000000000006,0.23 -1.1520000000000001,0.4860000000000003 -1.715,0.7680000000000012 c-0.7680000000000012,0.3330000000000008 -1.51,0.6660000000000015 -2.227,1.024 c-0.07700000000000012,0.02600000000000006 -0.128,0.05100000000000011 -0.17900000000000021,0.07700000000000012 c-1.459,0.7170000000000006 -2.918,1.459 -4.3260000000000005,2.227 c-0.6660000000000015,0.3580000000000003 -1.331,0.7420000000000011 -1.9969999999999999,1.126 c-2.253,1.28 -4.454,2.637 -6.579,4.096 c-0.6660000000000015,0.43500000000000055 -1.331,0.8960000000000012 -1.9969999999999999,1.3820000000000001 c-0.538,0.3580000000000003 -1.024,0.7170000000000006 -1.536,1.101 c-1.766,1.306 -3.507,2.688 -5.197,4.122 c-4.301,3.6100000000000003 -8.294,7.552 -11.904,11.802 c-4.378,5.12 -8.243,10.65 -11.571,16.538 l4.3260000000000005,2.432 c16.896,-29.901 48.998,-50.125 85.709,-50.125 c34.381,0 64.691,17.741 82.33,44.544 l4.173,-2.714 C409.30741571331026,249.01146697711943 408.71841571331026,248.14146697711942 408.10441571331023,247.29646697711945 z" id="svg_62" transform="rotate(60.047943115234375 321.60437011718756,230.66943359374994) " fill="#009900" fill-opacity="1"/>
		<path class="light-gray" d="M343.58352634716033,261.22031759643556 c0,57.062 -46.285,103.347 -103.373,103.347 s-103.373,-46.285 -103.373,-103.347 c0,-25.677 9.37,-49.178 24.909,-67.251 c-4.378,5.12 -8.243,10.65 -11.571,16.538 l4.3260000000000005,2.432 c-8.064,14.285 -12.672,30.746 -12.672,48.282 c0,54.244 44.134,98.381 98.381,98.381 s98.406,-44.134 98.406,-98.381 c0,-19.891000000000002 -5.916,-38.374 -16.077,-53.862 l4.173,-2.714 C337.38852634716034,220.90031759643557 343.58352634716033,240.33131759643555 343.58352634716033,261.22031759643556 z" id="svg_63" class="" transform="rotate(60.039207458496094 240.21052551269543,279.2683105468749) "/>
	</g>
</svg>
